<mxfile host="app.diagrams.net" modified="2024-03-31T22:34:58.052Z" agent="Mozilla/5.0 (Windows NT 10.0; Win64; x64) AppleWebKit/537.36 (KHTML, like Gecko) Chrome/123.0.0.0 Safari/537.36" etag="T8lc0K9WyBi2pQh9e1xE" version="24.2.1" type="device">
  <diagram name="Page-1" id="cehMRIM41BI3gV5GMjhs">
    <mxGraphModel dx="1754" dy="634" grid="1" gridSize="10" guides="1" tooltips="1" connect="1" arrows="1" fold="1" page="1" pageScale="1" pageWidth="850" pageHeight="1100" math="0" shadow="0">
      <root>
        <mxCell id="0" />
        <mxCell id="1" parent="0" />
        <mxCell id="s2LrYkPRTLf5qbK-lkEV-8" value="Security System BE" style="whiteSpace=wrap;html=1;fillColor=none;verticalAlign=top;fontStyle=1" vertex="1" parent="1">
          <mxGeometry x="190" width="250" height="480" as="geometry" />
        </mxCell>
        <mxCell id="s2LrYkPRTLf5qbK-lkEV-3" value="Clients&amp;nbsp;&lt;div&gt;(Security personnel)&lt;/div&gt;" style="whiteSpace=wrap;html=1;fillColor=none;verticalAlign=top;fontStyle=1" vertex="1" parent="1">
          <mxGeometry x="480" y="160" width="200" height="320" as="geometry" />
        </mxCell>
        <mxCell id="s2LrYkPRTLf5qbK-lkEV-1" value="Database Server" style="verticalAlign=top;align=center;spacingTop=8;spacingLeft=2;spacingRight=12;shape=cube;size=10;direction=south;fontStyle=0;html=1;whiteSpace=wrap;" vertex="1" parent="1">
          <mxGeometry x="250" y="70" width="150" height="130" as="geometry" />
        </mxCell>
        <mxCell id="s2LrYkPRTLf5qbK-lkEV-2" value="MySQL" style="shape=module;align=left;spacingLeft=20;align=center;verticalAlign=middle;whiteSpace=wrap;html=1;" vertex="1" parent="1">
          <mxGeometry x="265" y="120" width="100" height="50" as="geometry" />
        </mxCell>
        <mxCell id="s2LrYkPRTLf5qbK-lkEV-5" value="Company issued&lt;div&gt;specialized smartphone&lt;/div&gt;" style="verticalAlign=top;align=center;spacingTop=8;spacingLeft=2;spacingRight=12;shape=cube;size=10;direction=south;fontStyle=0;html=1;whiteSpace=wrap;" vertex="1" parent="1">
          <mxGeometry x="495" y="250" width="170" height="210" as="geometry" />
        </mxCell>
        <mxCell id="s2LrYkPRTLf5qbK-lkEV-12" style="edgeStyle=orthogonalEdgeStyle;rounded=0;orthogonalLoop=1;jettySize=auto;html=1;entryX=0.5;entryY=0;entryDx=0;entryDy=0;endArrow=open;endFill=0;startArrow=open;startFill=0;" edge="1" parent="1" source="s2LrYkPRTLf5qbK-lkEV-7" target="s2LrYkPRTLf5qbK-lkEV-11">
          <mxGeometry relative="1" as="geometry" />
        </mxCell>
        <mxCell id="s2LrYkPRTLf5qbK-lkEV-7" value="Persistent background web services" style="shape=module;align=left;spacingLeft=20;align=center;verticalAlign=middle;whiteSpace=wrap;html=1;" vertex="1" parent="1">
          <mxGeometry x="510" y="310" width="130" height="50" as="geometry" />
        </mxCell>
        <mxCell id="s2LrYkPRTLf5qbK-lkEV-11" value="Factory installed company web app (Vue&amp;nbsp;&lt;b&gt;FE&lt;/b&gt;)" style="shape=module;align=left;spacingLeft=20;align=center;verticalAlign=middle;whiteSpace=wrap;html=1;" vertex="1" parent="1">
          <mxGeometry x="510" y="400" width="130" height="50" as="geometry" />
        </mxCell>
        <mxCell id="s2LrYkPRTLf5qbK-lkEV-15" value="Node.js web server" style="verticalAlign=top;align=center;spacingTop=8;spacingLeft=2;spacingRight=12;shape=cube;size=10;direction=south;fontStyle=0;html=1;whiteSpace=wrap;" vertex="1" parent="1">
          <mxGeometry x="250" y="270" width="150" height="130" as="geometry" />
        </mxCell>
        <mxCell id="s2LrYkPRTLf5qbK-lkEV-16" value="Express.js" style="shape=module;align=left;spacingLeft=20;align=center;verticalAlign=middle;whiteSpace=wrap;html=1;" vertex="1" parent="1">
          <mxGeometry x="265" y="320" width="100" height="50" as="geometry" />
        </mxCell>
        <mxCell id="s2LrYkPRTLf5qbK-lkEV-17" style="edgeStyle=orthogonalEdgeStyle;rounded=0;orthogonalLoop=1;jettySize=auto;html=1;exitX=1;exitY=0.5;exitDx=0;exitDy=0;entryX=0;entryY=0;entryDx=0;entryDy=35;entryPerimeter=0;endArrow=open;endFill=0;startArrow=open;startFill=0;dashed=1;" edge="1" parent="1" source="s2LrYkPRTLf5qbK-lkEV-16" target="s2LrYkPRTLf5qbK-lkEV-7">
          <mxGeometry relative="1" as="geometry" />
        </mxCell>
        <mxCell id="s2LrYkPRTLf5qbK-lkEV-19" style="edgeStyle=orthogonalEdgeStyle;rounded=0;orthogonalLoop=1;jettySize=auto;html=1;exitX=0;exitY=0;exitDx=55;exitDy=0;exitPerimeter=0;entryX=0.401;entryY=1.004;entryDx=0;entryDy=0;entryPerimeter=0;endArrow=none;endFill=0;" edge="1" parent="1">
          <mxGeometry relative="1" as="geometry">
            <mxPoint x="400" y="320.79" as="sourcePoint" />
            <mxPoint x="494.31999999999994" y="320.00000000000006" as="targetPoint" />
          </mxGeometry>
        </mxCell>
        <mxCell id="s2LrYkPRTLf5qbK-lkEV-20" value="&amp;nbsp;TCP/IP&amp;nbsp;" style="edgeLabel;html=1;align=center;verticalAlign=middle;resizable=0;points=[];labelBorderColor=default;rotation=-90;" vertex="1" connectable="0" parent="s2LrYkPRTLf5qbK-lkEV-19">
          <mxGeometry x="0.0154" y="2" relative="1" as="geometry">
            <mxPoint x="-7" y="1" as="offset" />
          </mxGeometry>
        </mxCell>
        <mxCell id="s2LrYkPRTLf5qbK-lkEV-24" style="edgeStyle=orthogonalEdgeStyle;rounded=0;orthogonalLoop=1;jettySize=auto;html=1;exitX=0.004;exitY=0.273;exitDx=0;exitDy=0;exitPerimeter=0;entryX=1.003;entryY=0.27;entryDx=0;entryDy=0;entryPerimeter=0;endArrow=none;endFill=0;" edge="1" parent="1" source="s2LrYkPRTLf5qbK-lkEV-15" target="s2LrYkPRTLf5qbK-lkEV-1">
          <mxGeometry relative="1" as="geometry" />
        </mxCell>
        <mxCell id="s2LrYkPRTLf5qbK-lkEV-25" value="&amp;nbsp;Point-to-Point&amp;nbsp;" style="edgeLabel;html=1;align=center;verticalAlign=middle;resizable=0;points=[];labelBorderColor=default;" vertex="1" connectable="0" parent="s2LrYkPRTLf5qbK-lkEV-24">
          <mxGeometry x="0.1566" y="1" relative="1" as="geometry">
            <mxPoint as="offset" />
          </mxGeometry>
        </mxCell>
        <mxCell id="s2LrYkPRTLf5qbK-lkEV-27" style="edgeStyle=orthogonalEdgeStyle;rounded=0;orthogonalLoop=1;jettySize=auto;html=1;exitX=0;exitY=0;exitDx=0;exitDy=15;exitPerimeter=0;entryX=0;entryY=0;entryDx=0;entryDy=35;entryPerimeter=0;endArrow=open;endFill=0;startArrow=open;startFill=0;dashed=1;" edge="1" parent="1" source="s2LrYkPRTLf5qbK-lkEV-16" target="s2LrYkPRTLf5qbK-lkEV-2">
          <mxGeometry relative="1" as="geometry">
            <Array as="points">
              <mxPoint x="240" y="335" />
              <mxPoint x="240" y="155" />
            </Array>
          </mxGeometry>
        </mxCell>
        <mxCell id="s2LrYkPRTLf5qbK-lkEV-28" value="&amp;nbsp;Sequelize ORM&amp;nbsp;" style="edgeLabel;html=1;align=center;verticalAlign=middle;resizable=0;points=[];labelBorderColor=default;" vertex="1" connectable="0" parent="s2LrYkPRTLf5qbK-lkEV-27">
          <mxGeometry x="0.1011" y="1" relative="1" as="geometry">
            <mxPoint y="-4" as="offset" />
          </mxGeometry>
        </mxCell>
        <mxCell id="s2LrYkPRTLf5qbK-lkEV-30" value="UPS" style="verticalAlign=top;align=center;spacingTop=8;spacingLeft=2;spacingRight=12;shape=cube;size=10;direction=south;fontStyle=0;html=1;whiteSpace=wrap;" vertex="1" parent="1">
          <mxGeometry y="140" width="120" height="40" as="geometry" />
        </mxCell>
        <mxCell id="s2LrYkPRTLf5qbK-lkEV-31" value="NVR" style="verticalAlign=top;align=center;spacingTop=8;spacingLeft=2;spacingRight=12;shape=cube;size=10;direction=south;fontStyle=0;html=1;whiteSpace=wrap;" vertex="1" parent="1">
          <mxGeometry y="200" width="120" height="40" as="geometry" />
        </mxCell>
        <mxCell id="s2LrYkPRTLf5qbK-lkEV-32" value="Camera" style="verticalAlign=top;align=center;spacingTop=8;spacingLeft=2;spacingRight=12;shape=cube;size=10;direction=south;fontStyle=0;html=1;whiteSpace=wrap;" vertex="1" parent="1">
          <mxGeometry y="260" width="120" height="40" as="geometry" />
        </mxCell>
        <mxCell id="s2LrYkPRTLf5qbK-lkEV-33" value="Smoke sensor" style="verticalAlign=top;align=center;spacingTop=8;spacingLeft=2;spacingRight=12;shape=cube;size=10;direction=south;fontStyle=0;html=1;whiteSpace=wrap;" vertex="1" parent="1">
          <mxGeometry y="320" width="120" height="40" as="geometry" />
        </mxCell>
        <mxCell id="s2LrYkPRTLf5qbK-lkEV-34" value="Motion sensor" style="verticalAlign=top;align=center;spacingTop=8;spacingLeft=2;spacingRight=12;shape=cube;size=10;direction=south;fontStyle=0;html=1;whiteSpace=wrap;" vertex="1" parent="1">
          <mxGeometry y="380" width="120" height="40" as="geometry" />
        </mxCell>
        <mxCell id="s2LrYkPRTLf5qbK-lkEV-35" value="Electronic lock" style="verticalAlign=top;align=center;spacingTop=8;spacingLeft=2;spacingRight=12;shape=cube;size=10;direction=south;fontStyle=0;html=1;whiteSpace=wrap;" vertex="1" parent="1">
          <mxGeometry y="440" width="120" height="40" as="geometry" />
        </mxCell>
        <mxCell id="s2LrYkPRTLf5qbK-lkEV-36" style="edgeStyle=orthogonalEdgeStyle;rounded=0;orthogonalLoop=1;jettySize=auto;html=1;entryX=0.947;entryY=0.999;entryDx=0;entryDy=0;entryPerimeter=0;endArrow=none;endFill=0;" edge="1" parent="1" source="s2LrYkPRTLf5qbK-lkEV-35" target="s2LrYkPRTLf5qbK-lkEV-15">
          <mxGeometry relative="1" as="geometry">
            <Array as="points">
              <mxPoint x="140" y="460" />
              <mxPoint x="140" y="393" />
            </Array>
          </mxGeometry>
        </mxCell>
        <mxCell id="s2LrYkPRTLf5qbK-lkEV-39" style="edgeStyle=orthogonalEdgeStyle;rounded=0;orthogonalLoop=1;jettySize=auto;html=1;entryX=0.912;entryY=0.998;entryDx=0;entryDy=0;entryPerimeter=0;endArrow=none;endFill=0;" edge="1" parent="1" source="s2LrYkPRTLf5qbK-lkEV-34" target="s2LrYkPRTLf5qbK-lkEV-15">
          <mxGeometry relative="1" as="geometry">
            <Array as="points">
              <mxPoint x="130" y="400" />
              <mxPoint x="130" y="389" />
            </Array>
          </mxGeometry>
        </mxCell>
        <mxCell id="s2LrYkPRTLf5qbK-lkEV-40" style="edgeStyle=orthogonalEdgeStyle;rounded=0;orthogonalLoop=1;jettySize=auto;html=1;entryX=0.879;entryY=1.001;entryDx=0;entryDy=0;entryPerimeter=0;endArrow=none;endFill=0;" edge="1" parent="1" source="s2LrYkPRTLf5qbK-lkEV-33" target="s2LrYkPRTLf5qbK-lkEV-15">
          <mxGeometry relative="1" as="geometry">
            <Array as="points">
              <mxPoint x="130" y="340" />
              <mxPoint x="130" y="384" />
            </Array>
          </mxGeometry>
        </mxCell>
        <mxCell id="s2LrYkPRTLf5qbK-lkEV-41" style="edgeStyle=orthogonalEdgeStyle;rounded=0;orthogonalLoop=1;jettySize=auto;html=1;entryX=0.843;entryY=1.001;entryDx=0;entryDy=0;entryPerimeter=0;endArrow=none;endFill=0;" edge="1" parent="1" source="s2LrYkPRTLf5qbK-lkEV-32" target="s2LrYkPRTLf5qbK-lkEV-15">
          <mxGeometry relative="1" as="geometry">
            <Array as="points">
              <mxPoint x="140" y="280" />
              <mxPoint x="140" y="380" />
            </Array>
          </mxGeometry>
        </mxCell>
        <mxCell id="s2LrYkPRTLf5qbK-lkEV-44" style="edgeStyle=orthogonalEdgeStyle;rounded=0;orthogonalLoop=1;jettySize=auto;html=1;entryX=0.807;entryY=0.999;entryDx=0;entryDy=0;entryPerimeter=0;endArrow=none;endFill=0;" edge="1" parent="1" source="s2LrYkPRTLf5qbK-lkEV-31" target="s2LrYkPRTLf5qbK-lkEV-15">
          <mxGeometry relative="1" as="geometry">
            <Array as="points">
              <mxPoint x="150" y="220" />
              <mxPoint x="150" y="375" />
            </Array>
          </mxGeometry>
        </mxCell>
        <mxCell id="s2LrYkPRTLf5qbK-lkEV-45" style="edgeStyle=orthogonalEdgeStyle;rounded=0;orthogonalLoop=1;jettySize=auto;html=1;entryX=0.77;entryY=0.999;entryDx=0;entryDy=0;entryPerimeter=0;endArrow=none;endFill=0;" edge="1" parent="1" source="s2LrYkPRTLf5qbK-lkEV-30" target="s2LrYkPRTLf5qbK-lkEV-15">
          <mxGeometry relative="1" as="geometry">
            <Array as="points">
              <mxPoint x="160" y="160" />
              <mxPoint x="160" y="370" />
            </Array>
          </mxGeometry>
        </mxCell>
        <mxCell id="s2LrYkPRTLf5qbK-lkEV-46" value="&amp;nbsp;TCP/IP&amp;nbsp;" style="edgeLabel;html=1;align=center;verticalAlign=middle;resizable=0;points=[];labelBorderColor=default;rotation=-90;" vertex="1" connectable="0" parent="s2LrYkPRTLf5qbK-lkEV-45">
          <mxGeometry x="0.6246" relative="1" as="geometry">
            <mxPoint x="4" y="10" as="offset" />
          </mxGeometry>
        </mxCell>
        <mxCell id="s2LrYkPRTLf5qbK-lkEV-47" style="edgeStyle=orthogonalEdgeStyle;rounded=0;orthogonalLoop=1;jettySize=auto;html=1;exitX=0;exitY=0;exitDx=0;exitDy=15;exitPerimeter=0;entryX=1;entryY=0.75;entryDx=0;entryDy=0;endArrow=open;endFill=0;startArrow=open;startFill=0;dashed=1;" edge="1" parent="1" source="s2LrYkPRTLf5qbK-lkEV-11" target="s2LrYkPRTLf5qbK-lkEV-16">
          <mxGeometry relative="1" as="geometry">
            <Array as="points">
              <mxPoint x="460" y="415" />
              <mxPoint x="460" y="358" />
            </Array>
          </mxGeometry>
        </mxCell>
      </root>
    </mxGraphModel>
  </diagram>
</mxfile>
